<?xml version="1.0" standalone="no"?>
<!DOCTYPE svg PUBLIC "-//W3C//DTD SVG 20010904//EN"
 "http://www.w3.org/TR/2001/REC-SVG-20010904/DTD/svg10.dtd">
<svg version="1.0" xmlns="http://www.w3.org/2000/svg"
 width="200.000000pt" height="200.000000pt" viewBox="0 0 200.000000 200.000000"
 preserveAspectRatio="xMidYMid meet">
<metadata>
Created by potrace 1.11, written by Peter Selinger 2001-2013
</metadata>
<g transform="translate(0.000000,200.000000) scale(0.100000,-0.100000)"
fill="#000000" stroke="none">
<path d="M961 1506 c-11 -13 -14 -29 -10 -66 1 -8 -21 -63 -48 -121 -66 -138
-64 -137 -247 -56 -127 57 -135 62 -140 93 -9 44 -63 71 -103 52 -38 -18 -56
-58 -43 -94 20 -51 73 -70 115 -40 18 12 33 8 140 -41 66 -29 124 -58 129 -63
6 -6 3 -30 -7 -63 -23 -72 -117 -173 -146 -157 -40 21 -98 12 -135 -20 l-34
-31 -96 43 c-81 37 -99 49 -114 78 -14 29 -23 36 -54 38 -30 3 -40 -1 -53 -22
-22 -33 -16 -65 15 -88 21 -15 31 -17 56 -8 27 10 42 6 125 -30 52 -23 98 -45
102 -49 4 -5 10 -23 12 -41 3 -18 12 -41 20 -50 15 -17 13 -24 -37 -99 -30
-45 -60 -81 -69 -81 -37 0 -54 -51 -27 -79 32 -35 78 -13 78 37 0 13 22 56 50
96 l49 74 49 -1 c30 0 60 6 75 16 24 15 26 15 85 -28 35 -26 59 -51 59 -62 0
-41 4 -53 25 -73 34 -31 84 -27 119 11 23 25 57 40 165 74 l135 43 24 -24 c28
-28 63 -34 116 -21 19 5 35 -5 82 -49 32 -30 60 -65 63 -77 8 -45 67 -62 97
-29 21 23 21 41 1 71 -13 18 -23 22 -48 18 -27 -4 -39 2 -88 48 -54 51 -56 54
-51 94 8 56 -22 121 -54 121 -25 0 -25 0 -24 123 0 54 5 75 23 100 26 37 30
82 6 82 -24 0 -33 14 -15 21 9 3 62 -22 134 -64 l118 -70 95 -134 c52 -73 97
-135 100 -138 3 -3 5 -11 6 -17 2 -28 5 -32 24 -38 20 -6 50 9 50 26 0 4 -15
23 -32 42 -53 56 -200 266 -194 276 3 5 42 40 87 77 66 56 86 68 111 65 37 -3
68 23 68 59 0 33 -28 60 -63 60 -39 0 -61 -27 -59 -75 0 -5 -41 -44 -91 -86
l-92 -76 -115 68 c-63 38 -115 74 -116 81 -3 32 -5 38 -25 57 -19 17 -39 19
-79 8 -13 -4 -220 165 -214 175 9 15 -27 48 -51 48 -13 0 -28 -6 -34 -14z
m170 -166 c77 -64 99 -86 99 -106 0 -14 11 -36 25 -49 13 -14 23 -25 22 -26
-1 0 -53 -1 -116 -2 -104 -2 -114 -4 -117 -21 -6 -44 9 -52 101 -51 47 1 88
-2 90 -5 4 -7 -94 -130 -104 -130 -19 1 -198 171 -217 207 l-22 41 51 111 c38
85 55 111 69 111 11 0 64 -36 119 -80z m-160 -310 c29 -25 71 -61 93 -81 l40
-36 -32 -41 c-18 -22 -32 -52 -32 -66 0 -26 0 -26 81 -26 70 0 80 -2 75 -16
-3 -9 -6 -20 -6 -25 0 -5 -6 -9 -12 -9 -7 0 -67 -17 -133 -39 l-120 -38 -25
29 c-26 31 -45 36 -95 25 -25 -5 -40 0 -85 33 -30 22 -48 40 -40 40 8 0 23 18
32 40 l17 40 86 0 87 0 15 -40 c16 -39 17 -40 64 -40 l48 0 -65 141 c-35 78
-64 146 -64 151 0 15 14 7 71 -42z m-125 -36 c14 -31 23 -59 20 -62 -7 -6 -95
-7 -101 0 -7 6 39 118 48 118 4 0 19 -25 33 -56z m436 -89 c-4 -60 -17 -69
-60 -39 -30 20 -28 28 15 81 43 52 50 45 45 -42z"/>
</g>
</svg>
